<?xml version="1.0" encoding="utf-8"?>
<!-- Generator: Adobe Illustrator 18.1.0, SVG Export Plug-In . SVG Version: 6.00 Build 0)  -->
<!DOCTYPE svg PUBLIC "-//W3C//DTD SVG 1.1//EN" "http://www.w3.org/Graphics/SVG/1.1/DTD/svg11.dtd">
<svg version="1.1" id="Layer_1" xmlns="http://www.w3.org/2000/svg" xmlns:xlink="http://www.w3.org/1999/xlink" x="0px" y="0px"
	 viewBox="0 0 128.6 49.3" enable-background="new 0 0 128.6 49.3" xml:space="preserve">
<g>
	<path fill="#003C78" d="M125.8,44.8c-15.7-1.4-99.9-0.6-103.8-0.6c-0.4,0-1,0-1.6,0.1l8.6-4.7c0,0,0.1,0,0.1-0.1
		c4.4-1.4,7.8-3.8,10.1-7.3c2.3-3.5,3.5-7.5,3.5-12c0-3.9-0.9-7.4-2.7-10.6c-1.8-3.2-4.4-5.6-7.9-7.2C28.6,0.8,25,0,21.3,0
		C15.2,0,10.1,1.8,6.1,5.5C2,9.2,0,14.1,0,20.1c0,6.2,2,11.2,6,15c4,3.8,9.1,5.6,15.5,5.6c1,0,2,0,2.9-0.1L19,43.7
		c-0.5,0.3-1,0.5-1.4,0.8c-2.3,1.1-3.9,1.9-4.7,2.4c-0.8,0.5-1.2,1-1.2,1.5c0,0.6,0.3,1,1,1c0.4,0,1.2-0.5,2.4-1.4
		c1.7-1.5,3.5-2.2,5.4-2.2c3,0,94.8,0.2,102.9,3L125.8,44.8z M21.8,39.3c-5,0-8.8-1.6-11.3-4.8c-2.5-3.2-3.8-7.9-3.8-14.2
		c0-6.2,1.3-10.9,3.8-14.1c2.5-3.2,6.1-4.8,10.9-4.8c4.8,0,8.5,1.6,11,4.9c2.5,3.3,3.8,7.9,3.8,14c0,6.3-1.3,11-3.9,14.2
		C29.7,37.7,26.2,39.3,21.8,39.3z"/>
</g>
<g>
	<path fill="#FFFFFF" d="M51.9,29.9v8.4H59v-8.4h2.5v7.8c0,1-0.2,1.6-0.6,1.9c-0.4,0.3-1.1,0.5-2.1,0.5H52c-1,0-1.7-0.2-2.1-0.5
		c-0.4-0.3-0.6-1-0.6-1.9v-7.8H51.9z"/>
	<path fill="#FFFFFF" d="M64.6,40.2l6.1-10.3h2.4l6.2,10.3h-2.8l-1.3-2.3h-6.8l-1.3,2.3H64.6z M69.4,36.1h4.7l-2.4-4.3L69.4,36.1z"
		/>
	<path fill="#FFFFFF" d="M81.8,40.2V29.9h2.5v8.4h8.1v1.9H81.8z"/>
	<path fill="#FFFFFF" d="M95.2,40.2V29.9h2.5v10.3H95.2z"/>
	<path fill="#FFFFFF" d="M108.4,31.8v8.4h-2.5v-8.4h-5v-1.8h12.4v1.8H108.4z"/>
	<path fill="#FFFFFF" d="M120.5,40.2v-4.6l-5.6-5.7h3.4l3.7,3.8l3.7-3.8h2.9l-5.6,5.6v4.7H120.5z"/>
</g>
</svg>
